<svg t="1652150729382" class="icon" viewBox="0 0 1024 1024" version="1.1" xmlns="http://www.w3.org/2000/svg" p-id="1299" width="32" height="32"><path d="M270.6542964 807.11004687c-52.61287093 0-82.73944258-30.12657166-82.73944259-82.7394426v-144.69444751c0-8.91485811 7.21299649-16.12061262 16.12785459-16.12061263 24.18816089 0 48.79635573-3.39648128 48.79635573 19.51709391v137.48145102c0 11.45678759 9.33489203 20.36440372 20.36440372 20.36440374H750.98482322c11.45678759 0 20.79167963-9.33489203 20.79167963-20.79167963V579.25612284c0-8.90761614 7.21299649-16.12061262 16.12061262-16.12061263 24.18816089 0 48.79635573-3.39648128 48.79635573 19.51709389v145.12172342c0 52.61287093-25.88278056 78.49565149-78.49565149 78.49565148l-487.54352331 0.84006788z m-1e-8 0" p-id="1300"></path><path d="M512.09414554 631.86899376c-17.82247423 0-32.24846721-14.42599297-32.24846721-32.24846721V236.40704703c0-17.82247423 14.42599297-19.51709391 32.24846721-19.5170939s32.24846721 1.69461966 32.24846721 19.5170939v363.21347952c0 17.82247423-14.42599297 32.24846721-32.24846721 32.24846721z m0 0" p-id="1301"></path><path d="M510.39952588 643.75305724c-8.48758221 0-16.97516441-3.39648128-22.91357517-9.33489203L338.97498798 485.90720247c-15.69333673-15.70057868-14.85326887-30.97388148 0-45.82715034 14.85326887-14.85326887 30.97388148-14.85326887 45.82715034 0l125.59738756 125.59738756 132.81038403-132.81038404c11.03675365-11.03675365 27.15736628-8.06030631 39.8887396 4.66382504 12.73137332 12.73137332 18.24975014 28.85198593 5.94565272 41.15608334L533.31310106 633.99088932c-5.94565272 5.93841076-14.42599297 9.33489203-22.91357518 9.33489203v0.42727589z m0 0" p-id="1302"></path></svg>