<svg xmlns="http://www.w3.org/2000/svg" viewBox="0 0 30 30" width="30" height="30" preserveAspectRatio="xMidYMid meet" style="width: 100%; height: 100%; transform: translate3d(0px, 0px, 0px);"><defs><clipPath id="__lottie_element_139"><rect width="30" height="30" x="0" y="0"></rect></clipPath></defs><g clip-path="url(#__lottie_element_139)"><g transform="matrix(1,0,0,1,15,15)" opacity="0.8" style="display: block;"><g opacity="1" transform="matrix(1,0,0,1,0,0)"><path d=" M-3,-7.5 C-3,-8.050000190734863 -3.450000047683716,-8.5 -4,-8.5 C-4.550000190734863,-8.5 -5,-8.050000190734863 -5,-7.5 C-5,-7.5 -5,-6 -5,-6 C-5,-5.449999809265137 -5.449999809265137,-5 -6,-5 C-6,-5 -7.5,-5 -7.5,-5 C-8.050000190734863,-5 -8.5,-4.550000190734863 -8.5,-4 C-8.5,-3.450000047683716 -8.050000190734863,-3 -7.5,-3 C-7.5,-3 -5,-3 -5,-3 C-3.9000000953674316,-3 -3,-3.9000000953674316 -3,-5 C-3,-5 -3,-7.5 -3,-7.5z M7.5,-3 C8.050000190734863,-3 8.5,-3.450000047683716 8.5,-4 C8.5,-4.550000190734863 8.050000190734863,-5 7.5,-5 C7.5,-5 6,-5 6,-5 C5.449999809265137,-5 5,-5.449999809265137 5,-6 C5,-6 5,-7.5 5,-7.5 C5,-8.050000190734863 4.550000190734863,-8.5 4,-8.5 C3.450000047683716,-8.5 3,-8.050000190734863 3,-7.5 C3,-7.5 3,-5 3,-5 C3,-3.9000000953674316 3.9000000953674316,-3 5,-3 C5,-3 7.5,-3 7.5,-3z M-3,7.5 C-3,8.050000190734863 -3.450000047683716,8.5 -4,8.5 C-4.550000190734863,8.5 -5,8.050000190734863 -5,7.5 C-5,7.5 -5,6 -5,6 C-5,5.449999809265137 -5.449999809265137,5 -6,5 C-6,5 -7.5,5 -7.5,5 C-8.050000190734863,5 -8.5,4.550000190734863 -8.5,4 C-8.5,3.450000047683716 -8.050000190734863,3 -7.5,3 C-7.5,3 -5,3 -5,3 C-3.9000000953674316,3 -3,3.9000000953674316 -3,5 C-3,5 -3,7.5 -3,7.5z M7.5,3 C8.050000190734863,3 8.5,3.450000047683716 8.5,4 C8.5,4.550000190734863 8.050000190734863,5 7.5,5 C7.5,5 6,5 6,5 C5.449999809265137,5 5,5.449999809265137 5,6 C5,6 5,7.5 5,7.5 C5,8.050000190734863 4.550000190734863,8.5 4,8.5 C3.450000047683716,8.5 3,8.050000190734863 3,7.5 C3,7.5 3,5 3,5 C3,3.9000000953674316 3.9000000953674316,3 5,3 C5,3 7.5,3 7.5,3z"></path></g></g></g></svg>