<svg t="1652151507271" class="icon" viewBox="0 0 1024 1024" version="1.1" xmlns="http://www.w3.org/2000/svg" p-id="1360" width="32" height="32"><path d="M828.84895833 758.35006512H195.15104167c-19.8030599 0-35.64550781-15.84244793-35.64550779-31.68489585v-475.2734375c0-19.8030599 15.84244793-35.64550781 35.64550779-35.64550781h633.69791666c19.8030599 0 31.68489583 15.84244793 31.68489584 35.64550781v475.2734375c0 19.8030599-11.88183593 31.68489583-31.68489584 31.68489585z m-598.05240885-63.36979169h566.36751302V283.07662761H230.79654948v411.90364583z" p-id="1361"></path><path d="M412.98470052 500.91028645H313.96940105c-15.84244793 0-31.68489583-11.88183593-31.68489584-31.68489583s15.84244793-27.72428386 31.68489584-27.72428385h67.33040364v-71.29101563c0-15.84244793 11.88183593-31.68489583 31.68489583-31.68489582s27.72428386 15.84244793 27.72428386 31.68489582v99.01529948c0 15.84244793-11.88183593 31.68489583-27.72428386 31.68489583zM611.01529948 639.53170573c-15.84244793 0-31.68489583-11.88183593-31.68489584-31.68489584v-99.01529947c0-15.84244793 11.88183593-31.68489583 31.68489584-31.68489584H710.03059895c15.84244793 0 31.68489583 11.88183593 31.68489584 31.68489584s-11.88183593 31.68489583-31.68489584 31.68489584h-67.33040364v67.33040363c-3.96061198 15.84244793-15.84244793 31.68489583-31.68489583 31.68489584z" p-id="1362"></path></svg>