<svg t="1652254564666" class="icon" viewBox="0 0 1024 1024" version="1.1" xmlns="http://www.w3.org/2000/svg" p-id="1286" width="32" height="32"><path d="M371.71832251 458.91543603a28.05633521 28.05633521 0 0 0 2.90451074 39.7361753c5.5927279 4.94384789 12.9776001 7.26127648 20.33157372 6.79779077l112.90512086-8.37364221a29.04510522 29.04510522 0 0 0 18.23043799-8.5590365 28.42712378 28.42712378 0 0 0 7.78656006-18.57032728l4.32586646-113.4613037a28.42712378 28.42712378 0 0 0-7.50846863-20.30067445 28.02543664 28.02543664 0 0 0-39.7361753-1.45225572 28.21083093 28.21083093 0 0 0-8.96072363 19.58999657l-1.88484216 50.33454894-97.42469788-94.30389426a27.56195093 27.56195093 0 0 0-20.08438087-7.84835792 27.71644592 27.71644592 0 0 0-19.65179443 8.55903649 28.36532593 28.36532593 0 0 0 0.71067787 39.7361753l97.42469787 94.48928857-50.30364966 3.7696836a28.05633521 28.05633521 0 0 0-19.09561157 9.8567965zM740.06587242 534.61810302h-158.57391404c-10.69107079 0-21.10404944 2.16293359-30.92994666 6.24160791a80.52291847 80.52291847 0 0 0-43.81484962 43.96934462c-4.01687646 9.88769508-6.21070862 20.45516944-6.21070862 31.05354308v92.82073999c0 10.75286865 2.16293359 21.19674659 6.21070862 31.0535431a80.58471703 80.58471703 0 0 0 43.81484962 43.96934533c9.82589722 4.01687646 20.39337158 6.21070862 30.89904809 6.21070862h158.60481262c21.53663659 0 42.05360389-8.5590365 57.25593543-23.79226733A81.26449561 81.26449561 0 0 0 820.99047875 708.70333862v-92.85163855c0-21.59843445-8.52813721-42.20809959-23.69957017-57.44133043a80.70831275 80.70831275 0 0 0-57.25593543-23.79226661z m24.71923805 174.0852356a24.81193519 24.81193519 0 0 1-24.71923804 24.81193519h-158.57391405a24.75013733 24.75013733 0 0 1-24.71923804-24.81193519v-92.85163855a24.81193519 24.81193519 0 0 1 24.71923804-24.8119359h158.57391405a24.78103661 24.78103661 0 0 1 24.71923804 24.8119359v92.85163855z" p-id="1287"></path><path d="M716.33540367 203.00952125H307.66459633C249.26539588 203.00952125 203.00952125 251.30473303 203.00952125 309.76573205v340.50750685c0 58.27560401 46.25587463 106.75621009 104.65507507 106.7562108h80.80101061a27.37655663 27.37655663 0 0 0 19.80628943-8.28094506 28.42712378 28.42712378 0 0 0 8.25004578-19.868088 27.56195093 27.56195093 0 0 0-8.25004578-19.8680873 28.45802307 28.45802307 0 0 0-19.77539086-8.28094506H307.63369775c-26.29508948 0-48.57330323-22.06192016-48.57330323-50.36544824V309.79663063c0-28.27262878 22.24731445-50.33454895 48.57330323-50.33454896h408.67080664c26.29508948 0 48.57330323 22.06192016 48.57330322 50.36544823v77.30941773a28.05633521 28.05633521 0 0 0 38.74740601 25.9552002 27.90184021 27.90184021 0 0 0 15.14053369-15.23323083 27.90184021 27.90184021 0 0 0 2.19383216-10.72196937V309.76573205C820.99047875 251.30473303 774.73460412 203.00952125 716.33540367 203.00952125z" p-id="1288"></path></svg>