<svg xmlns="http://www.w3.org/2000/svg" viewBox="0 0 30 30" width="30" height="30" preserveAspectRatio="xMidYMid meet" style="width: 100%; height: 100%; transform: translate3d(0px, 0px, 0px);"><defs><clipPath id="__lottie_element_83"><rect width="30" height="30" x="0" y="0"></rect></clipPath></defs><g clip-path="url(#__lottie_element_83)"><g transform="matrix(1,0,0,1,15,15)" opacity="0.8" style="display: block;"><g opacity="1" transform="matrix(1,0,0,1,0,0)"><path d=" M3.5,6 C2.950000047683716,6 2.5,6.449999809265137 2.5,7 C2.5,7.550000190734863 2.950000047683716,8 3.5,8 C3.5,8 6,8 6,8 C7.099999904632568,8 8,7.099999904632568 8,6 C8,6 8,3.5 8,3.5 C8,2.950000047683716 7.550000190734863,2.5 7,2.5 C6.449999809265137,2.5 6,2.950000047683716 6,3.5 C6,3.5 6,5 6,5 C6,5.510000228881836 5.610000133514404,5.940000057220459 5.119999885559082,5.989999771118164 C5.119999885559082,5.989999771118164 5,6 5,6 C5,6 3.5,6 3.5,6z M-6,3.5 C-6,2.950000047683716 -6.449999809265137,2.5 -7,2.5 C-7.550000190734863,2.5 -8,2.950000047683716 -8,3.5 C-8,3.5 -8,6 -8,6 C-8,7.099999904632568 -7.099999904632568,8 -6,8 C-6,8 -3.5,8 -3.5,8 C-2.950000047683716,8 -2.5,7.550000190734863 -2.5,7 C-2.5,6.449999809265137 -2.950000047683716,6 -3.5,6 C-3.5,6 -5,6 -5,6 C-5.510000228881836,6 -5.940000057220459,5.610000133514404 -5.989999771118164,5.119999885559082 C-5.989999771118164,5.119999885559082 -6,5 -6,5 C-6,5 -6,3.5 -6,3.5z M3.5,-6 C2.950000047683716,-6 2.5,-6.449999809265137 2.5,-7 C2.5,-7.550000190734863 2.950000047683716,-8 3.5,-8 C3.5,-8 6,-8 6,-8 C7.099999904632568,-8 8,-7.099999904632568 8,-6 C8,-6 8,-3.5 8,-3.5 C8,-2.950000047683716 7.550000190734863,-2.5 7,-2.5 C6.449999809265137,-2.5 6,-2.950000047683716 6,-3.5 C6,-3.5 6,-5 6,-5 C6,-5.510000228881836 5.610000133514404,-5.940000057220459 5.119999885559082,-5.989999771118164 C5.119999885559082,-5.989999771118164 5,-6 5,-6 C5,-6 3.5,-6 3.5,-6z M-6,-3.5 C-6,-2.950000047683716 -6.449999809265137,-2.5 -7,-2.5 C-7.550000190734863,-2.5 -8,-2.950000047683716 -8,-3.5 C-8,-3.5 -8,-6 -8,-6 C-8,-7.099999904632568 -7.099999904632568,-8 -6,-8 C-6,-8 -3.5,-8 -3.5,-8 C-2.950000047683716,-8 -2.5,-7.550000190734863 -2.5,-7 C-2.5,-6.449999809265137 -2.950000047683716,-6 -3.5,-6 C-3.5,-6 -5,-6 -5,-6 C-5.510000228881836,-6 -5.940000057220459,-5.610000133514404 -5.989999771118164,-5.119999885559082 C-5.989999771118164,-5.119999885559082 -6,-5 -6,-5 C-6,-5 -6,-3.5 -6,-3.5z"></path></g></g></g></svg>