<svg t="1652151437888" class="icon" viewBox="0 0 1024 1024" version="1.1" xmlns="http://www.w3.org/2000/svg" p-id="1224" width="32" height="32"><path d="M828.40625001 758.00585938H195.59374999c-19.77539063 0-35.59570313-15.8203125-35.59570312-31.64062501v-474.60937499c0-19.77539063 15.8203125-35.59570313 35.59570314-35.59570313h632.8125c19.77539063 0 31.640625 15.8203125 31.64062499 35.59570312v474.60937501c0 19.77539063-11.86523438 31.640625-31.64062499 31.64062499z m-597.21679689-63.28125001h565.57617188V283.39648437H231.18945312v411.32812501z" p-id="1225"></path><path d="M314.24609375 500.92578125c-15.8203125 0-31.640625-11.86523438-31.640625-31.640625v-98.87695314c0-15.8203125 11.86523438-31.640625 31.640625-31.64062498h98.87695313c15.8203125 0 31.640625 11.86523438 31.64062499 31.640625s-15.8203125 27.68554688-31.640625 27.68554686H345.88671875v71.19140626c0 15.8203125-15.8203125 31.640625-31.640625 31.640625zM709.75390625 639.35351563h-98.87695313c-15.8203125 0-31.640625-11.86523438-31.64062499-31.64062501s11.86523438-31.640625 31.640625-31.640625h67.23632812v-71.19140624c0-15.8203125 11.86523438-31.640625 31.640625-31.640625s31.640625 11.86523438 31.640625 31.640625v102.83203125c-3.95507813 15.8203125-15.8203125 31.640625-31.640625 31.640625z" p-id="1226"></path></svg>