<svg t="1652150560515" class="icon" viewBox="0 0 1024 1024" version="1.1" xmlns="http://www.w3.org/2000/svg" p-id="1130" width="32" height="32"><path d="M652.8996582 858.06933594H267.27954102C218.22730255 858.06933594 178.2902832 818.20956421 178.2902832 769.31182099V473.37619018c0-48.97499084 39.93701935-88.75751495 88.98925782-88.75751495h385.62011718c49.05223847 0 88.98925781 39.85977172 88.98925782 88.75751495v295.93563081c0 48.89774323-39.93701935 88.75751495-88.98925782 88.75751495zM267.27954102 443.79035187c-16.37649536 0-29.66308594 13.28659057-29.66308594 29.58583831v295.93563081c0 16.29924774 13.28659057 29.58583833 29.66308594 29.58583831h385.62011718c16.37649536 0 29.66308594-13.28659057 29.66308594-29.58583832V473.37619018c0-16.29924774-13.28659057-29.58583833-29.66308594-29.58583831H267.27954102z" p-id="1131"></path><path d="M816.04663086 464.33821869c-11.43264771 0-22.32456208-6.64329529-27.19116211-17.76695252C725.66691589 302.50445557 574.33882905 281.02961731 489.75268555 281.02961731c-16.37649536 0-29.66308594-13.28659057-29.66308594-29.58583833s13.28659057-29.58583833 29.66308594-29.5858383c168.55430603 0 297.40333557 73.30799103 353.48510742 201.07555389 6.56604767 14.98603821-0.30899047 32.44400025-15.29502869 39.01004792-3.86238098 1.62220001-7.95650482 2.39467621-11.89613342 2.3946762z" p-id="1132"></path><path d="M482.33691406 336.95689393c-7.57026672 0-15.21778107-2.85816193-21.01135253-8.65173341l-56.00452424-55.92727661c-11.58714294-11.58714294-11.58714294-30.2810669 0-41.86820984l56.00452422-55.92727661c11.58714294-11.58714294 30.35831452-11.58714294 41.94545748 0s11.58714294 30.2810669 0 41.86820984l-35.07041932 34.99317169 35.07041932 34.99317169c11.58714294 11.58714294 11.58714294 30.2810669 0 41.86820984-5.71632385 5.71632385-13.3638382 8.6517334-20.93410493 8.65173341z" p-id="1133"></path></svg>