<svg t="1652152118165" class="icon" viewBox="0 0 1024 1024" version="1.1" xmlns="http://www.w3.org/2000/svg" p-id="1558" width="32" height="32"><path d="M456.17803361 223.47538814l-140.1306521 143.37527846h-85.40380654c-36.53548378 0-54.51094453 19.67008039-54.51094452 54.52112853v181.68617505c0 34.28210132 18.54304969 54.52927573 54.51094452 54.52927575h85.40448547l140.12997318 143.3583051c40.26283231 37.81255894 101.53460316 21.14947792 101.53460317-41.6302057v-494.22129337c0-63.42738681-62.03489285-78.63483297-101.53460317-41.61934275zM503.20169226 731.38670986c0 41.27308633-18.29591767 18.13433134-37.06912603-0.39242394-32.72055276-32.29553998-82.1571434-84.48045607-122.79203162-127.93631574h-76.35565102c-27.62786765 0-36.33927181-9.26541443-36.33927182-36.33927181v-109.01374184c0-26.50151587 9.28035099-36.3331614 36.33927182-36.3331614h77.20567659c40.42441863-43.68805513 89.38100283-95.77656258 122.08254543-127.77880301 18.56138092-18.16080977 36.92790773-41.823023 36.92790771 1.14536194 0.00067894 88.77675142 0.00067894 349.66602736 0.00067895 436.6503926z" p-id="1559"></path></svg>