<svg t="1652152132692" class="icon" viewBox="0 0 1024 1024" version="1.1" xmlns="http://www.w3.org/2000/svg" p-id="1757" width="32" height="32"><path d="M658.39993012 373.68549675c-2.54803989-6.79069943-7.67738745-12.30364479-14.2080551-15.2855236-5.34049607-3.00156791-11.66680455-4.30104788-18.16148869-3.27789412-15.45661502 2.43533682-25.99367314 17.07044151-23.53253682 32.68796392 1.39385183 8.84379633 6.65898621 16.10160247 13.76742684 20.29537876 27.27957442 29.19484768 44.07097399 68.29398684 44.07097398 111.41241621 0 47.18049244-20.11817693 89.56499398-52.1075176 119.4089027-5.93048986 5.11644781-9.68839042 12.67977431-9.68839041 21.1270731 0 15.40976857 12.49103063 27.89944131 27.90012023 27.89944132 7.88785703 0 15.00580273-3.27857304 20.08083555-8.54099171 5.41449991-3.14278622 9.64154397-8.11937358 11.87727415-14.09059948 34.95967761-38.61166444 56.444549-89.61048257 56.44454901-145.8051838-0.00135787-56.20692205-21.48758713-107.19555617-56.44590687-145.83437797z" p-id="1758"></path><path d="M456.17803361 223.47538814l-140.1306521 143.37527846h-85.40380654c-36.53548378 0-54.51094453 19.6700804-54.51094452 54.52112853v181.68617505c0 34.28210132 18.54304969 54.52927573 54.51094452 54.52927575h85.40448547l140.12997318 143.3583051c40.26283231 37.81255894 101.53460316 21.14947792 101.53460317-41.6302057v-494.22129337c0-63.42738681-62.03489285-78.63483298-101.53460317-41.61934275zM503.20169226 731.38670986c0 41.27308633-18.29591767 18.13433134-37.06912603-0.39242394-32.72055276-32.29553998-82.1571434-84.48045608-122.79203162-127.93631574h-76.35565102c-27.62786765 0-36.33927181-9.26541443-36.33927182-36.33927181v-109.01374184c0-26.50151587 9.28035098-36.3331614 36.33927182-36.3331614h77.20567659c40.42441864-43.68805513 89.38100283-95.77656258 122.08254543-127.77880301 18.56138092-18.16080977 36.92790773-41.823023 36.92790771 1.14536194 0.00067894 88.77675142 0.00067894 349.66602736 0.00067895 436.6503926z" p-id="1759"></path></svg>